<mxfile host="app.diagrams.net" modified="2023-06-14T23:23:31.193Z" agent="Mozilla/5.0 (Windows NT 10.0; Win64; x64) AppleWebKit/537.36 (KHTML, like Gecko) Chrome/114.0.0.0 Safari/537.36" version="21.4.0" etag="p06bk56ALAviIhi2Rouz" type="github">
  <diagram name="PÃ¡gina-1" id="apy1cAqjX333Bge7wqaH">
    <mxGraphModel>
      <root>
        <mxCell id="0" />
        <mxCell id="1" parent="0" />
      </root>
    </mxGraphModel>
  </diagram>
</mxfile>
